<?xml version="1.0" encoding="utf-8"?>
<!-- Generator: Adobe Illustrator 24.3.0, SVG Export Plug-In . SVG Version: 6.00 Build 0)  -->
<svg version="1.1" xmlns="http://www.w3.org/2000/svg" xmlns:xlink="http://www.w3.org/1999/xlink" x="0px" y="0px"
	 viewBox="0 0 612 489.19" style="enable-background:new 0 0 612 489.19;" xml:space="preserve">
<style type="text/css">
	.st0{fill:#ED1C24;}
	.st1{fill:#262262;}
</style>
<g id="Layer_3">
</g>
<g id="Layer_1">
	<g>
		<g>
			<path class="st0" d="M342.93,251.73h-22.88v-22.88h68.65v22.88h-22.88v91.54l-22.88-22.88V251.73z"/>
			<g>
				<path class="st0" d="M286.12,200.19c8.44,0,15.64,2.98,21.59,8.93c5.95,5.95,8.93,13.15,8.93,21.59
					c0,8.44-2.98,15.64-8.93,21.59c-3.87,3.87-8.24,6.46-13.12,7.78l39.29,39.29h-32.5l-38.14-38.14v38.14h-22.88v-76.28h-7.63
					v-22.88H286.12z M286.12,223.08h-22.89v15.26h22.89c2.08,0,3.88-0.75,5.38-2.25c1.5-1.5,2.25-3.29,2.25-5.38
					c0-2.08-0.75-3.88-2.25-5.38C290,223.83,288.2,223.08,286.12,223.08z"/>
				<path class="st0" d="M403.48,315.7v52.41h-19.9v-106.3l59.53,61.03v-52.41h22.88v106.3L403.48,315.7z"/>
			</g>
		</g>
		<path class="st1" d="M256,303.42l-28.04,18.66V187.84l-21.91,17.54l-0.67,56.32l-26.65,17.88l-1.69,72.17l-8.43,5.06l-24.29,0.34
			l-67.12,54.3h100.51l132.83-108.36L256,303.42z M213.54,267.24l1.6,2.78l-30.37,17.54l-1.6-2.78L213.54,267.24z M213.45,288.41
			l1.61,2.78l-30.37,17.54l-1.61-2.79L213.45,288.41z M213.45,294.86l1.61,2.79l-30.37,17.54l-1.61-2.79L213.45,294.86z
			 M213.45,302.27l1.61,2.79l-30.37,17.52l-1.61-2.78L213.45,302.27z M213.45,309.56l1.61,2.79l-30.37,17.54l-1.61-2.79
			L213.45,309.56z M213.35,317.02l1.61,2.78l-30.37,17.54l-1.61-2.78L213.35,317.02z M185.65,343.7l-1.61-2.78l30.39-17.54l1.6,2.79
			L185.65,343.7z M185.65,301.48l-1.61-2.78l30.39-17.54l1.6,2.79L185.65,301.48z M185.74,294.13l-1.61-2.78l30.37-17.54l1.61,2.78
			L185.74,294.13z"/>
		<polygon class="st1" points="77.2,416.17 179.73,414.82 248.2,359.85 291.71,359.85 222.23,417.86 221.89,426.97 80.24,426.97 		
			"/>
		<polygon class="st1" points="282.94,373.68 295.76,361.87 358.15,415.84 523.27,415.84 516.87,426.97 331.88,426.97 
			332.18,416.17 		"/>
		<polygon class="st1" points="392.52,373.26 354.44,407.41 299.64,359.17 322.05,333.98 353.31,335.33 368.74,350.76 368.74,334.6 
			379.11,334.09 379.11,373.26 		"/>
		<polygon class="st1" points="427.89,344.03 408.21,360.76 408.21,335.17 418.05,334.72 		"/>
		<polygon class="st1" points="524.05,409.96 497.4,409.96 471.41,380.16 471.41,348.83 		"/>
		<polygon class="st1" points="315.05,303.43 348.17,331.96 337.75,331.9 325.99,331.33 303.8,313.21 		"/>
		<path class="st1" d="M354.38,51.76v15.1l-7.01-4.28l-0.04,0.02v-7.56c-45.09-40.12,0,0-45.09-40.12v180.55
			c-1.48-0.53-2.99-1.01-4.51-1.42c-3.73-0.99-7.59-1.63-11.45-1.98c-1.92-0.16-3.86-0.25-5.79-0.25c-0.49,0-5.59,0.1-5.59,0.27
			v-66.32c-47.8-28.2,0,0-47.8-28.2c0.09,19.84,0.16,65.96,0.25,85.8l-7.23,6.1c0-29.02,0-74.14,0.01-103.17
			c42.86,25.39,0,0,42.86,25.39V45.83c0-4.01-0.19-8.08,0-12.08c0.04-0.88,1.15-1.36,1.83-1.87c0.8-0.61,1.61-1.22,2.41-1.83
			c1.6-1.21,3.2-2.42,4.81-3.64c3.2-2.44,6.42-4.87,9.62-7.3c3.22-2.44,6.42-4.86,9.63-7.3c1.61-1.21,3.22-2.42,4.81-3.64
			c0.8-0.62,1.61-1.22,2.41-1.83c0.26-0.2,2.14-1.9,2.31-1.74C354.38,51.76,300.83,4.61,354.38,51.76z"/>
		<path class="st1" d="M276.3,411.89h-10.33v-5.57c0-2.6,2.11-4.71,4.71-4.71h5.62V411.89z"/>
		<g>
			<rect x="279.65" y="414.85" class="st1" width="10.33" height="10.29"/>
			<rect x="266" y="414.85" class="st1" width="10.33" height="10.29"/>
			<path class="st1" d="M289.95,411.89h-10.33v-10.29h5.62c2.6,0,4.71,2.11,4.71,4.71V411.89z"/>
		</g>
		<path class="st1" d="M425.96,385.76H414v-6.45c0-3.01,2.44-5.46,5.46-5.46h6.5V385.76z"/>
		<path class="st1" d="M441.77,385.76h-11.96v-11.91h6.5c3.01,0,5.46,2.44,5.46,5.46V385.76z"/>
		<rect x="429.81" y="389.18" class="st1" width="11.96" height="11.91"/>
		<rect x="414" y="389.18" class="st1" width="11.96" height="11.91"/>
		<line class="st1" x1="396.2" y1="126.69" x2="396.2" y2="121.31"/>
		<polygon class="st1" points="477.39,216.57 477.39,349.25 472.8,343.95 472.45,219.57 439.01,189.95 438.66,311.35 420.77,293.16 
			394.54,265.35 393.07,263.28 393.11,260.76 393.26,240.8 393.37,228.89 393.37,228.49 392,228 389.71,226.54 358.57,206.54 
			358.57,199.22 393.41,220.46 393.39,213.28 393.39,213.22 358.57,190.86 358.57,183.55 393.28,205.25 396.17,207.08 396.2,201.21 
			396.2,199.36 358.57,175.19 358.57,167.87 396.2,190.81 396.2,183.68 358.57,159.51 358.57,152.19 396.2,175.15 396.2,168.01 
			358.57,143.83 358.57,136.52 396.2,159.46 396.2,152.33 358.57,128.16 358.57,120.84 396.2,143.8 396.2,136.65 358.57,112.48 
			358.57,105.18 396.2,128.12 396.2,126.69 396.23,121.33 396.2,121.31 396.2,120.98 358.57,96.82 358.57,89.49 396.2,112.43 
			396.2,105.24 349.52,75.26 349.52,222.79 320.46,222.79 320.1,85.3 347.46,66.99 401.83,100.13 402.89,199.63 414.03,191.25 
			415.89,189.84 434.24,176.02 		"/>
		<polygon class="st1" points="393.37,228.49 393.37,228.89 392,228 		"/>
	</g>
</g>
<g id="Layer_2">
	<g>
		<g>
			<path class="st1" d="M276.85,471.75c-5.05-3.79-8.26-10.1-8.26-16.77c0-6.64,3.25-12.91,8.26-16.7l0.72,0.9
				c-3.54,3.35-6.02,9.27-6.02,15.84c0,6.42,2.63,12.63,6.02,15.83L276.85,471.75z"/>
			<path class="st1" d="M289.98,441.31c2.56,0,4.62,0.47,6.1,1.55c1.41,1.05,2.38,2.74,2.38,5.12c0,5.27-4.51,7.39-7.94,7.39
				c-0.4,0-0.76-0.04-0.97-0.07l-2.49-0.65v5.63c0,3.03,0.25,3.1,3.57,3.46v1.01h-9.96v-1.01c3.1-0.33,3.25-0.54,3.25-3.54v-14.32
				c0-3.21-0.4-3.28-3.25-3.57v-1.01H289.98z M287.06,453.39c0.43,0.22,1.41,0.47,2.63,0.47c2.42,0,5.41-1.23,5.41-5.77
				c0-3.97-2.6-5.56-5.63-5.56c-1.05,0-1.8,0.18-2.02,0.43c-0.29,0.25-0.4,0.69-0.4,1.66V453.39z"/>
			<path class="st1" d="M322.85,465.04c-0.47,0-0.87-0.04-1.33-0.07c-2.63-0.18-4.04-0.87-5.63-3.1c-1.33-1.84-2.63-4.11-3.79-5.95
				c-0.72-1.15-1.19-1.37-3.03-1.37h-1.26v5.66c0,3.07,0.4,3.25,3.28,3.54v1.01h-9.63v-1.01c2.99-0.33,3.25-0.47,3.25-3.54v-14.39
				c0-3.07-0.4-3.17-3.25-3.5v-1.01h9.2c2.63,0,4.4,0.32,5.77,1.23c1.48,0.94,2.45,2.56,2.45,4.76c0,3.1-1.98,5.05-4.65,6.21
				c0.65,1.12,2.2,3.53,3.28,5.16c1.33,1.91,2.02,2.81,2.85,3.71c0.97,1.05,1.8,1.44,2.63,1.66L322.85,465.04z M309.54,453.32
				c1.88,0,3.07-0.29,3.97-1.05c1.41-1.05,1.98-2.49,1.98-4.44c0-3.86-2.56-5.27-5.34-5.27c-1.05,0-1.66,0.14-1.91,0.36
				c-0.32,0.25-0.43,0.61-0.43,1.55v8.84H309.54z"/>
			<path class="st1" d="M324.26,464.75v-1.01c2.96-0.33,3.25-0.47,3.25-3.54v-14.32c0-3.1-0.29-3.25-3.25-3.57v-1.01h9.67v1.01
				c-2.99,0.32-3.28,0.47-3.28,3.57v14.32c0,3.1,0.29,3.21,3.28,3.54v1.01H324.26z"/>
			<path class="st1" d="M359.9,442.32c-2.42,0.32-3.03,0.65-4.33,3.9c-0.97,2.38-5.95,14.46-7.72,18.94h-1.19
				c-2.13-5.81-5.23-14.25-7.29-19.59c-1.01-2.67-1.62-3.03-3.82-3.25v-1.01h9.16v1.01c-2.67,0.29-2.81,0.72-2.31,2.06
				c0.9,2.63,3.54,9.81,5.81,15.8c1.91-4.65,4.29-10.53,5.99-15.08c0.79-2.09,0.36-2.42-2.6-2.78v-1.01h8.3V442.32z"/>
			<path class="st1" d="M370.94,464.75v-1.01c2.34-0.29,2.63-0.65,2.13-2.02c-0.47-1.41-1.19-3.21-1.95-5.48h-7.79
				c-0.58,1.62-1.12,3.03-1.62,4.51c-0.79,2.34-0.29,2.63,2.67,2.99v1.01h-8.33v-1.01c2.27-0.29,2.85-0.54,4.11-3.79l7.47-18.94
				l1.15-0.22c2.27,6.17,4.76,12.99,7.03,19.23c1.15,3.14,1.48,3.43,4.04,3.72v1.01H370.94z M367.34,445.53
				c-1.15,3.1-2.38,6.38-3.46,9.23h6.75L367.34,445.53z"/>
			<path class="st1" d="M397.39,446.97c-0.32-1.15-0.76-2.34-1.15-2.99c-0.58-0.97-0.94-1.23-2.92-1.23h-3.61v17.57
				c0,2.81,0.29,3.21,3.71,3.43v1.01h-10.5v-1.01c3.36-0.22,3.64-0.58,3.64-3.43v-17.57h-3.28c-1.98,0-2.56,0.22-3.17,1.3
				c-0.43,0.72-0.72,1.59-1.19,2.92h-1.08c0.22-2.2,0.43-4.47,0.54-6.49h0.83c0.54,0.87,0.94,0.83,1.95,0.83h14.29
				c1.01,0,1.3-0.14,1.84-0.83h0.87c0,1.7,0.14,4.29,0.32,6.38L397.39,446.97z"/>
			<path class="st1" d="M420.15,459.02c-0.22,0.94-1.19,4.65-1.55,5.74h-17.53v-1.01c3.35-0.25,3.61-0.58,3.61-3.54v-14.25
				c0-3.21-0.4-3.39-3.1-3.64v-1.01h11.04c3.39,0,4.8-0.04,5.23-0.07c0.04,0.9,0.18,3.61,0.32,5.52l-1.08,0.18
				c-0.32-1.23-0.69-1.98-1.08-2.74c-0.58-1.19-1.41-1.44-3.57-1.44h-3.43c-1.12,0-1.19,0.11-1.19,1.15v7.97h4
				c2.71,0,2.89-0.54,3.32-2.99h1.12v7.43h-1.12c-0.47-2.6-0.76-2.96-3.35-2.96h-3.97v7.18c0,2.53,0.79,2.74,2.6,2.78h3.35
				c2.2,0,2.56-0.32,3.35-1.26c0.69-0.76,1.44-2.24,1.95-3.32L420.15,459.02z"/>
			<path class="st1" d="M423.26,438.28c5.05,3.82,8.26,10.1,8.26,16.77c0,6.64-3.25,12.91-8.26,16.7l-0.76-0.9
				c3.5-3.28,6.06-9.27,6.06-15.8c0-6.38-2.56-12.63-6.06-15.87L423.26,438.28z"/>
		</g>
		<g>
			<g>
				<path class="st0" d="M28.56,459.02c-0.22,0.94-1.19,4.65-1.55,5.74H9.47v-1.01c3.35-0.25,3.61-0.58,3.61-3.54v-14.25
					c0-3.21-0.4-3.39-3.1-3.64v-1.01h11.04c3.39,0,4.8-0.04,5.23-0.07c0.04,0.9,0.18,3.61,0.32,5.52l-1.08,0.18
					c-0.32-1.23-0.69-1.98-1.08-2.74c-0.58-1.19-1.41-1.44-3.57-1.44h-3.43c-1.12,0-1.19,0.11-1.19,1.15v7.97h4
					c2.71,0,2.89-0.54,3.32-2.99h1.12v7.43h-1.12c-0.47-2.6-0.76-2.96-3.35-2.96h-3.97v7.18c0,2.53,0.79,2.74,2.6,2.78h3.35
					c2.2,0,2.56-0.32,3.35-1.26c0.69-0.76,1.44-2.24,1.95-3.32L28.56,459.02z"/>
				<path class="st0" d="M56.01,442.32c-2.31,0.25-3.07,0.61-3.17,2.27c-0.04,1.15-0.11,2.67-0.11,6.02v14.46h-1.37l-15.44-18.87
					v9.02c0,3.25,0.11,4.87,0.18,5.92c0.07,1.84,0.97,2.38,3.57,2.6v1.01h-8.77v-1.01c2.24-0.18,3.1-0.72,3.25-2.49
					c0.11-1.15,0.18-2.78,0.18-6.06V446c0-1.01-0.07-1.59-0.72-2.38c-0.69-0.9-1.44-1.12-3.21-1.3v-1.01h5.41l15.29,18.14v-8.84
					c0-3.35-0.07-4.91-0.18-5.99c-0.11-1.62-0.94-2.13-3.82-2.31v-1.01h8.91V442.32z"/>
				<path class="st0" d="M82.35,454.91c-2.24,0.29-2.38,0.5-2.38,2.63v3.03c0,1.26,0.04,2.45,0.22,3.43c-2.24,0.5-5.16,1.3-8.19,1.3
					c-8.19,0-13.17-5.09-13.17-12.34c0-7.61,6.2-12.16,13.42-12.16c3.68,0,6.38,0.72,7.5,0.9c0.07,1.33,0.25,3.54,0.54,5.81
					l-1.08,0.22c-0.87-3.07-1.91-4.37-4.18-5.12c-0.83-0.29-2.31-0.47-3.35-0.47c-5.52,0-9.09,3.79-9.09,10.39
					c0,5.74,2.96,11.43,9.96,11.43c1.23,0,2.34-0.25,3.07-0.61c0.76-0.43,1.23-0.83,1.23-2.31v-2.96c0-2.63-0.29-2.92-3.75-3.17
					v-1.05h9.27V454.91z"/>
				<path class="st0" d="M85.17,464.75v-1.01c2.96-0.33,3.25-0.47,3.25-3.54v-14.32c0-3.1-0.29-3.25-3.25-3.57v-1.01h9.67v1.01
					c-2.99,0.32-3.28,0.47-3.28,3.57v14.32c0,3.1,0.29,3.21,3.28,3.54v1.01H85.17z"/>
				<path class="st0" d="M123.41,442.32c-2.31,0.25-3.07,0.61-3.17,2.27c-0.04,1.15-0.11,2.67-0.11,6.02v14.46h-1.37l-15.44-18.87
					v9.02c0,3.25,0.11,4.87,0.18,5.92c0.07,1.84,0.97,2.38,3.57,2.6v1.01H98.3v-1.01c2.24-0.18,3.1-0.72,3.25-2.49
					c0.11-1.15,0.18-2.78,0.18-6.06V446c0-1.01-0.07-1.59-0.72-2.38c-0.69-0.9-1.44-1.12-3.21-1.3v-1.01h5.41l15.29,18.14v-8.84
					c0-3.35-0.07-4.91-0.18-5.99c-0.11-1.62-0.94-2.13-3.82-2.31v-1.01h8.91V442.32z"/>
				<path class="st0" d="M145.02,459.02c-0.22,0.94-1.19,4.65-1.55,5.74h-17.53v-1.01c3.35-0.25,3.61-0.58,3.61-3.54v-14.25
					c0-3.21-0.4-3.39-3.1-3.64v-1.01h11.04c3.39,0,4.8-0.04,5.23-0.07c0.04,0.9,0.18,3.61,0.32,5.52l-1.08,0.18
					c-0.32-1.23-0.69-1.98-1.08-2.74c-0.58-1.19-1.41-1.44-3.57-1.44h-3.43c-1.12,0-1.19,0.11-1.19,1.15v7.97h4
					c2.71,0,2.89-0.54,3.32-2.99h1.12v7.43H140c-0.47-2.6-0.76-2.96-3.35-2.96h-3.97v7.18c0,2.53,0.79,2.74,2.6,2.78h3.35
					c2.2,0,2.56-0.32,3.35-1.26c0.69-0.76,1.44-2.24,1.95-3.32L145.02,459.02z"/>
				<path class="st0" d="M166.27,459.02c-0.22,0.94-1.19,4.65-1.55,5.74h-17.53v-1.01c3.35-0.25,3.61-0.58,3.61-3.54v-14.25
					c0-3.21-0.4-3.39-3.1-3.64v-1.01h11.04c3.39,0,4.8-0.04,5.23-0.07c0.04,0.9,0.18,3.61,0.32,5.52l-1.08,0.18
					c-0.32-1.23-0.69-1.98-1.08-2.74c-0.58-1.19-1.41-1.44-3.57-1.44h-3.43c-1.12,0-1.19,0.11-1.19,1.15v7.97h4
					c2.71,0,2.89-0.54,3.32-2.99h1.12v7.43h-1.12c-0.47-2.6-0.76-2.96-3.35-2.96h-3.97v7.18c0,2.53,0.79,2.74,2.6,2.78h3.35
					c2.2,0,2.56-0.32,3.35-1.26c0.69-0.76,1.44-2.24,1.95-3.32L166.27,459.02z"/>
				<path class="st0" d="M190.19,465.04c-0.47,0-0.87-0.04-1.33-0.07c-2.63-0.18-4.04-0.87-5.63-3.1c-1.33-1.84-2.63-4.11-3.79-5.95
					c-0.72-1.15-1.19-1.37-3.03-1.37h-1.26v5.66c0,3.07,0.4,3.25,3.28,3.54v1.01h-9.63v-1.01c2.99-0.33,3.25-0.47,3.25-3.54v-14.39
					c0-3.07-0.4-3.17-3.25-3.5v-1.01h9.2c2.63,0,4.4,0.32,5.77,1.23c1.48,0.94,2.45,2.56,2.45,4.76c0,3.1-1.98,5.05-4.65,6.21
					c0.65,1.12,2.2,3.53,3.28,5.16c1.33,1.91,2.02,2.81,2.85,3.71c0.97,1.05,1.8,1.44,2.63,1.66L190.19,465.04z M176.88,453.32
					c1.88,0,3.07-0.29,3.97-1.05c1.41-1.05,1.98-2.49,1.98-4.44c0-3.86-2.56-5.27-5.34-5.27c-1.05,0-1.66,0.14-1.91,0.36
					c-0.32,0.25-0.43,0.61-0.43,1.55v8.84H176.88z"/>
				<path class="st0" d="M191.6,464.75v-1.01c2.96-0.33,3.25-0.47,3.25-3.54v-14.32c0-3.1-0.29-3.25-3.25-3.57v-1.01h9.67v1.01
					c-2.99,0.32-3.28,0.47-3.28,3.57v14.32c0,3.1,0.29,3.21,3.28,3.54v1.01H191.6z"/>
				<path class="st0" d="M229.84,442.32c-2.31,0.25-3.07,0.61-3.17,2.27c-0.04,1.15-0.11,2.67-0.11,6.02v14.46h-1.37l-15.44-18.87
					v9.02c0,3.25,0.11,4.87,0.18,5.92c0.07,1.84,0.97,2.38,3.57,2.6v1.01h-8.77v-1.01c2.24-0.18,3.1-0.72,3.25-2.49
					c0.11-1.15,0.18-2.78,0.18-6.06V446c0-1.01-0.07-1.59-0.72-2.38c-0.69-0.9-1.44-1.12-3.21-1.3v-1.01h5.41l15.29,18.14v-8.84
					c0-3.35-0.07-4.91-0.18-5.99c-0.11-1.62-0.94-2.13-3.82-2.31v-1.01h8.91V442.32z"/>
				<path class="st0" d="M256.18,454.91c-2.24,0.29-2.38,0.5-2.38,2.63v3.03c0,1.26,0.04,2.45,0.22,3.43
					c-2.24,0.5-5.16,1.3-8.19,1.3c-8.19,0-13.17-5.09-13.17-12.34c0-7.61,6.2-12.16,13.42-12.16c3.68,0,6.38,0.72,7.5,0.9
					c0.07,1.33,0.25,3.54,0.54,5.81l-1.08,0.22c-0.87-3.07-1.91-4.37-4.18-5.12c-0.83-0.29-2.31-0.47-3.35-0.47
					c-5.52,0-9.09,3.79-9.09,10.39c0,5.74,2.96,11.43,9.96,11.43c1.23,0,2.34-0.25,3.07-0.61c0.76-0.43,1.23-0.83,1.23-2.31v-2.96
					c0-2.63-0.29-2.92-3.75-3.17v-1.05h9.27V454.91z"/>
			</g>
			<g>
				<path class="st0" d="M462.33,458.77c-0.22,1.12-1.3,4.87-1.66,5.99H443.9v-1.01c3.28-0.33,3.57-0.5,3.57-3.57v-14.32
					c0-3.07-0.36-3.25-3.25-3.54v-1.01h9.67v1.01c-2.89,0.29-3.28,0.43-3.28,3.54v14.68c0,2.2,0.29,2.71,2.34,2.74
					c0.04,0,2.63,0.04,2.85,0.04c1.84,0,2.38-0.22,3.21-1.12c0.9-0.94,1.66-2.38,2.2-3.71L462.33,458.77z"/>
				<path class="st0" d="M464.71,464.75v-1.01c2.96-0.33,3.25-0.47,3.25-3.54v-14.32c0-3.1-0.29-3.25-3.25-3.57v-1.01h9.67v1.01
					c-2.99,0.32-3.28,0.47-3.28,3.57v14.32c0,3.1,0.29,3.21,3.28,3.54v1.01H464.71z"/>
				<path class="st0" d="M497.87,464.75v-1.01c2.96-0.29,3.07-0.5,3.03-4.37l0.04-14.72c-2.96,6.6-7.72,16.92-8.98,20.09h-0.94
					c-1.23-3.28-5.3-13.2-8.04-19.73c-0.61,12.63-0.65,15.47-0.65,16.16c0.04,2.02,0.94,2.31,3.39,2.56v1.01h-8.55v-1.01
					c2.09-0.22,2.96-0.65,3.25-2.6c0.22-1.59,0.25-2.89,1.19-16.05c0.14-1.88-0.22-2.49-3.39-2.78v-1.01h6.28l7.97,18.29l8.55-18.29
					h6.31v1.01c-3.1,0.36-3.5,0.69-3.43,3.21l0.14,13.85c0.14,3.86,0.25,4.04,3.43,4.37v1.01H497.87z"/>
				<path class="st0" d="M510.71,464.75v-1.01c2.96-0.33,3.25-0.47,3.25-3.54v-14.32c0-3.1-0.29-3.25-3.25-3.57v-1.01h9.67v1.01
					c-2.99,0.32-3.28,0.47-3.28,3.57v14.32c0,3.1,0.29,3.21,3.28,3.54v1.01H510.71z"/>
				<path class="st0" d="M542.86,446.97c-0.32-1.15-0.76-2.34-1.15-2.99c-0.58-0.97-0.94-1.23-2.92-1.23h-3.61v17.57
					c0,2.81,0.29,3.21,3.71,3.43v1.01h-10.5v-1.01c3.35-0.22,3.64-0.58,3.64-3.43v-17.57h-3.28c-1.98,0-2.56,0.22-3.17,1.3
					c-0.43,0.72-0.72,1.59-1.19,2.92h-1.08c0.22-2.2,0.43-4.47,0.54-6.49h0.83c0.54,0.87,0.94,0.83,1.95,0.83h14.29
					c1.01,0,1.3-0.14,1.84-0.83h0.87c0,1.7,0.14,4.29,0.32,6.38L542.86,446.97z"/>
				<path class="st0" d="M565.62,459.02c-0.22,0.94-1.19,4.65-1.55,5.74h-17.53v-1.01c3.35-0.25,3.61-0.58,3.61-3.54v-14.25
					c0-3.21-0.4-3.39-3.1-3.64v-1.01h11.04c3.39,0,4.8-0.04,5.23-0.07c0.04,0.9,0.18,3.61,0.32,5.52l-1.08,0.18
					c-0.32-1.23-0.69-1.98-1.08-2.74c-0.58-1.19-1.41-1.44-3.57-1.44h-3.43c-1.12,0-1.19,0.11-1.19,1.15v7.97h4
					c2.71,0,2.89-0.54,3.32-2.99h1.12v7.43h-1.12c-0.47-2.6-0.76-2.96-3.35-2.96h-3.97v7.18c0,2.53,0.79,2.74,2.6,2.78h3.35
					c2.2,0,2.56-0.32,3.35-1.26c0.69-0.76,1.44-2.24,1.95-3.32L565.62,459.02z"/>
				<path class="st0" d="M578.18,441.31c5.09,0,8.3,1.01,10.53,3.14c1.77,1.73,3.07,4.26,3.07,7.72c0,4.22-1.73,7.65-4.51,9.74
					c-2.74,2.06-6.24,2.85-10.68,2.85h-8.44v-1.01c3.1-0.29,3.25-0.54,3.25-3.5v-14.39c0-3.1-0.43-3.25-3.25-3.54v-1.01H578.18z
					 M574.54,459.96c0,2.71,1.15,3.46,3.86,3.46c6.49,0,9.81-4.44,9.81-10.75c0-3.93-1.33-6.93-4.18-8.66
					c-1.66-1.05-3.75-1.44-6.17-1.44c-1.62,0-2.49,0.22-2.85,0.51c-0.32,0.22-0.47,0.61-0.47,2.02V459.96z"/>
			</g>
		</g>
	</g>
</g>
</svg>
